<svg xmlns="http://www.w3.org/2000/svg" viewBox="0 0 128 128" style="enable-background:new 0 0 128 128" xml:space="preserve"><path d="M69.2 90.4c0 2.8.8 5.6 2.4 8H29.1v-8.9c0-14.7 11.9-26.6 26.6-26.6h1.7c9.4 0 18.2 5 23 13.1-6.6 1.7-11.2 7.7-11.2 14.4z" style="fill:#005086"/><circle cx="56.6" cy="45" style="fill:#f7d6bf" r="18"/><path d="M98.9 90.4c0 8.2-6.6 14.8-14.8 14.8-8.2 0-14.8-6.6-14.8-14.8 0-6.8 4.6-12.7 11.2-14.4 1.2-.3 2.4-.5 3.7-.5 8 .1 14.7 6.7 14.7 14.9z" style="fill:#80bfbe"/><path d="M38.1 52c-.1-.3-.2-.5-.3-.8-.3-.9.2-1.9 1.1-2.2s1.9.2 2.2 1.1c.1.2.2.4.2.7.3.9-.1 1.9-1 2.3s-1.9-.2-2.2-1.1zm62.5 38.4c0 9.2-7.4 16.6-16.6 16.6-5.3 0-10.3-2.5-13.4-6.8H60.4c-1 0-1.8-.8-1.8-1.8s.8-1.8 1.8-1.8h8.3c-.9-2.1-1.2-4.3-1.2-6.3 0-6.1 3.4-12.3 10.2-15.3-4.7-6.4-12.2-10.3-20.3-10.3h-1.7c-13.7 0-24.8 11.1-24.9 24.9v7.2h21.6c1 0 1.8.8 1.8 1.8s-.8 1.8-1.8 1.8H29.1c-1 0-1.7-.8-1.8-1.8v-8.9c0-12.5 8.1-23.4 20-27.1-2.2-1.1-4.1-2.6-5.7-4.5-.6-.7-.6-1.8.2-2.5.7-.6 1.8-.6 2.5.2 3.1 3.5 7.5 5.5 12.2 5.5 9 0 16.2-7.3 16.1-16.3s-7.3-16.2-16.3-16.1c-8.9 0-16.1 7.3-16.1 16.2 0 1-.8 1.8-1.8 1.8s-1.8-.8-1.8-1.8c0-10.9 8.8-19.8 19.7-19.9S76.1 34 76.2 44.9c0 7.4-4.1 14.2-10.7 17.6 6.4 2 11.9 6.1 15.5 11.7 10.3-1.9 19.6 6 19.6 16.2zm-3.5 0c0-7.2-5.9-13.1-13.1-13.1-7.2 0-13.1 5.9-13.1 13.1 0 7.2 5.9 13.1 13.1 13.1 7.3 0 13.1-5.8 13.1-13.1zm-6.3-1.7h-5v-4.9c0-1-.8-1.8-1.8-1.8s-1.8.8-1.8 1.8v4.9h-5c-1 0-1.8.8-1.8 1.8s.8 1.8 1.8 1.8h5v5c0 1 .8 1.8 1.8 1.8s1.8-.8 1.8-1.8v-5h5c1 0 1.8-.8 1.8-1.8s-.9-1.8-1.8-1.8z" style="fill:#172956"/></svg>